<?xml version="1.0" encoding="UTF-8" standalone="no"?>
<svg width="32px" height="32px" viewBox="0 0 32 32" version="1.1" xmlns="http://www.w3.org/2000/svg" xmlns:xlink="http://www.w3.org/1999/xlink">
    <!-- Generator: Sketch 3.8.3 (29802) - http://www.bohemiancoding.com/sketch -->
    <title>lightbulb</title>
    <desc>Created with Sketch.</desc>
    <defs>
        <circle id="path-1" cx="14" cy="14" r="14"></circle>
        <mask id="mask-2" maskContentUnits="userSpaceOnUse" maskUnits="objectBoundingBox" x="-2" y="-2" width="32" height="32">
            <rect x="-2" y="-2" width="32" height="32" fill="white"></rect>
            <use xlink:href="#path-1" fill="black"></use>
        </mask>
    </defs>
    <g id="Page-1" stroke="none" stroke-width="1" fill="none" fill-rule="evenodd">
        <g id="lightbulb" transform="translate(2.000000, 2.000000)">
            <g id="Oval-4">
                <use fill="#539AB9" fill-rule="evenodd" xlink:href="#path-1"></use>
                <use stroke="#539AB9" mask="url(#mask-2)" stroke-width="4" xlink:href="#path-1"></use>
            </g>
            <g transform="translate(4.307692, 3.589744)" id="Fill-1" fill="#FFFFFF">
                <path d="M13.728884,8.59915034 C13.728884,6.43101782 12.0223709,4.66753046 9.92428572,4.66753046 C7.82620056,4.66753046 6.11968741,6.4314735 6.11968741,8.59915034 C6.11968741,9.03842729 6.19024093,9.47178039 6.32914316,9.88553918 C6.34237194,9.92472778 6.35604169,9.96346071 6.37015239,10.0021936 C6.4658406,10.2104401 6.69513952,10.578175 6.8988628,10.9048987 C6.98837757,11.0484383 7.0805381,11.1969905 7.17181671,11.346454 C7.40464331,11.7287708 7.70052711,12.2336659 7.92012493,12.7494973 C8.09430392,13.1568766 8.2305604,13.6362535 8.32889436,14.1817042 L11.5196771,14.1817042 C11.6180111,13.6367092 11.7542675,13.1573323 11.9284465,12.7494973 C12.1476034,12.2354886 12.4434872,11.7301378 12.6758728,11.3478211 L12.9501496,10.904443 C13.1613692,10.565416 13.4003692,10.1812765 13.4713637,10.0195095 C13.4890021,9.97485275 13.5044357,9.92974028 13.5189873,9.88690622 C13.6578896,9.4713247 13.728884,9.03842729 13.728884,8.59915034 L13.728884,8.59915034 Z M15.3092828,8.59915034 C15.3092828,9.2375601 15.2038935,9.8504517 15.0125171,10.4218763 C14.9887052,10.4934183 14.9631296,10.5640489 14.9362311,10.6342239 C14.7589654,11.0507167 14.3801812,11.6162175 14.0141848,12.2172614 C13.7747438,12.6105145 13.5410353,13.0183494 13.3747936,13.4084128 C13.0431921,14.1853497 12.9550002,15.2571126 12.9316293,15.8153224 L6.91650117,15.8153224 C6.89357128,15.2571126 6.80537939,14.1853497 6.47421883,13.4084128 C6.30753615,13.0183494 6.07426859,12.6105145 5.83438663,12.2172614 C5.46839027,11.6162175 5.09004705,11.0507167 4.91234038,10.6342239 C4.88544185,10.5640489 4.86030716,10.4929626 4.83605439,10.4218763 C4.64467798,9.8504517 4.53928867,9.2375601 4.53928867,8.59915034 C4.53928867,5.5255787 6.95045505,3.03391232 9.92472668,3.03391232 C12.8985574,3.03391232 15.3092828,5.52512302 15.3092828,8.59915034 L15.3092828,8.59915034 Z M12.9360389,16.7923035 C12.6176662,18.6341681 11.4015,19.6321105 9.92428572,19.6166174 C8.44663054,19.6325662 7.23090528,18.6341681 6.91253254,16.7923035 L12.9360389,16.7923035 Z"></path>
            </g>
        </g>
    </g>
</svg>